<svg width="64" height="64" viewBox="0 0 64 64" xmlns="http://www.w3.org/2000/svg">
  <title>
    Authentiq Logo
  </title>
  <g fill="none" fill-rule="evenodd">
    <path d="M56.892 40.25c0 1.108-.62 2.365-1.38 2.796L33.21 54.496c-.757.428-2 .428-2.756-.003L8.447 43.047c-.757-.43-1.377-1.69-1.377-2.798V23.567c0-1.11.62-2.37 1.377-2.8L30.452 9.324c.757-.43 2-.43 2.756-.002l22.305 11.45c.76.43 1.38 1.688 1.38 2.798v16.68z" fill="#F26641"/>
    <path d="M25.51 32.157c0-3.024 2.256-5.476 5.038-5.476 2.782 0 5.036 2.453 5.036 5.477 0 3.024-2.254 5.474-5.036 5.474-2.782 0-5.038-2.45-5.038-5.473zm19.026 4.887c-.277.073-.552.15-.845.15-.593 0-1.15-.162-1.554-.493-.392-.33-.59-.79-.59-1.385V22.147h-5.78v2.3c-.798-.943-1.725-1.61-2.765-2.046-1.043-.432-2.358-.65-3.576-.65-1.465 0-2.782.28-3.966.836-1.18.554-2.188 1.302-3.03 2.24-.83.943-1.476 2.036-1.93 3.288-.448 1.254-.674 2.575-.674 3.97 0 1.426.226 2.767.674 4.018.454 1.25 1.1 2.346 1.93 3.286.842.937 1.85 1.687 3.03 2.245 1.184.556 2.5.832 3.966.832 1.427 0 2.714-.282 3.866-.858 1.144-.578 2.1-1.472 2.866-2.69.488 1.042 1.176 1.895 2.058 2.56.89.66 1.91.988 3.06.988.795 0 1.672-.095 2.47-.282.295-.074.542-.21.792-.38v-4.76z" fill="#FFF"/>
  </g>
</svg>
